<svg width="15" height="19" fill="none" xmlns="http://www.w3.org/2000/svg"><path fill-rule="evenodd" clip-rule="evenodd" d="M3.459 4.65A3.908 3.908 0 017.362.746a3.908 3.908 0 013.904 3.904v1.678h1.657a.68.68 0 01.677.611l.862 8.374a2.644 2.644 0 01-.664 2.036c-.49.54-1.189.849-1.92.849H2.62c-.733 0-1.44-.316-1.938-.866a2.624 2.624 0 01-.668-2.016l.885-8.379a.681.681 0 01.677-.609H3.46V4.65zm1.362 1.678h5.084V4.65a2.545 2.545 0 00-2.543-2.542A2.545 2.545 0 004.821 4.65v1.678zm7.058 10.508c.352 0 .675-.143.91-.402a1.26 1.26 0 00.319-.984l-.8-7.76H2.188l-.82 7.765c-.035.345.083.698.323.963.24.266.579.418.928.418h9.26z" fill="#fff"/></svg>