<svg width="10" height="14" fill="none" xmlns="http://www.w3.org/2000/svg"><path fill-rule="evenodd" clip-rule="evenodd" d="M7.011 2.191h2.191a.438.438 0 010 .876H.438a.438.438 0 110-.876H2.63v-.876A1.315 1.315 0 013.944 0h1.753A1.315 1.315 0 017.01 1.315v.876zM3.634 1.005a.438.438 0 00-.128.31v.876h2.629v-.876a.438.438 0 00-.438-.439H3.944a.438.438 0 00-.31.129zM1.52 12.504a2.19 2.19 0 01-.642-1.55v-7.01h7.887v7.01a2.19 2.19 0 01-2.19 2.192H3.07a2.19 2.19 0 01-1.55-.642zm4.306-6.898a.438.438 0 00-.128.31v5.258a.438.438 0 00.876 0V5.916a.438.438 0 00-.748-.31zm-2.629 0a.438.438 0 00-.128.31v5.258a.438.438 0 00.876 0V5.916a.438.438 0 00-.748-.31z" fill="#C4C4C4"/></svg>