<svg width="23" height="21" fill="none" xmlns="http://www.w3.org/2000/svg"><path d="M14.148 11.06c0 2.466 1.958 4.471 4.365 4.471a4.285 4.285 0 003.086-1.31 4.496 4.496 0 001.279-3.16.91.91 0 00-.124-.46l-2.74-4.677a.895.895 0 00.536-.825.884.884 0 00-.873-.894h-7.275V1.523a.884.884 0 00-.873-.894c-.482 0-.873.4-.873.894v2.682H3.38c-.482 0-.873.4-.873.894 0 .372.22.69.536.825l-2.74 4.677a.91.91 0 00-.124.46c0 2.465 1.958 4.47 4.365 4.47s4.365-2.005 4.365-4.47a.91.91 0 00-.125-.46L6.087 5.993h4.569v13.114H3.963c-.482 0-.873.4-.873.894s.39.894.873.894h15.132c.482 0 .873-.4.873-.894a.884.884 0 00-.873-.894h-6.693V5.993h4.57l-2.7 4.608a.91.91 0 00-.124.46zm-9.603 2.683c-1.138 0-2.108-.748-2.469-1.788h4.937c-.36 1.04-1.33 1.788-2.468 1.788zm1.95-3.577h-3.9l1.95-3.329 1.95 3.33zm12.018-3.329l1.95 3.33h-3.9l1.95-3.33zm2.469 5.118c-.36 1.04-1.33 1.788-2.469 1.788-1.138 0-2.108-.748-2.469-1.788h4.938z" fill="#000"/></svg>