<svg width="22" height="25" fill="none" xmlns="http://www.w3.org/2000/svg"><path fill-rule="evenodd" clip-rule="evenodd" d="M13.553.326a10.985 10.985 0 014.307 2.165v-.004a10.915 10.915 0 01-1.23 17.738 18.21 18.21 0 00-4.611 3.796 1.46 1.46 0 01-1.074.524 1.39 1.39 0 01-1.072-.453 16.686 16.686 0 00-4.461-3.743A10.925 10.925 0 018.732.215a10.985 10.985 0 014.82.111zm-2.628 20.86a22.765 22.765 0 014.278-3.284v-.003a8.187 8.187 0 00-4.308-15.166 8.589 8.589 0 00-1.647.162A8.194 8.194 0 006.79 17.996a19.655 19.655 0 014.135 3.19zM7.884 6.384a5.462 5.462 0 116.069 9.084 5.462 5.462 0 01-6.07-9.084zM9.4 13.197a2.731 2.731 0 103.035-4.542A2.731 2.731 0 009.4 13.197z" fill="#843061"/></svg>