<svg width="25" height="20" fill="none" xmlns="http://www.w3.org/2000/svg"><path d="M21.099 0H3.9a3.851 3.851 0 00-2.757 1.177A4.076 4.076 0 000 4.013v11.974a4.076 4.076 0 001.144 2.836A3.851 3.851 0 003.9 20h17.2a3.851 3.851 0 002.757-1.177A4.076 4.076 0 0025 15.987V4.013a4.076 4.076 0 00-1.144-2.836A3.851 3.851 0 0021.1 0zm-1.267 2.857L12.5 8.244 5.168 2.857h14.664zm1.267 14.286H3.9c-.298 0-.583-.122-.794-.339-.21-.216-.33-.51-.33-.817V4.613l8.916 6.55a1.362 1.362 0 001.614 0l8.915-6.55v11.374c0 .307-.118.6-.329.817-.21.217-.496.339-.794.339z" fill="#843061"/></svg>