<svg width="20" height="25" fill="none" xmlns="http://www.w3.org/2000/svg"><path fill-rule="evenodd" clip-rule="evenodd" d="M4.546 0h10.026a4.55 4.55 0 014.546 4.546v15.489a4.55 4.55 0 01-4.546 4.546H4.546A4.55 4.55 0 010 20.035V4.546A4.55 4.55 0 014.546 0zm11.308 21.317c.34-.34.532-.801.533-1.282V4.546a1.82 1.82 0 00-1.815-1.815H4.546a1.819 1.819 0 00-1.815 1.815v15.489a1.819 1.819 0 001.815 1.814h10.026a1.82 1.82 0 001.282-.532zm-7.66-3.564h2.731a1.366 1.366 0 010 2.73h-2.73a1.366 1.366 0 010-2.73z" fill="#843061"/></svg>