<svg width="20" height="19" fill="none" xmlns="http://www.w3.org/2000/svg"><path d="M12.308 9.78c0 2.31 1.725 4.191 3.846 4.191 1.027 0 1.993-.436 2.72-1.228C19.6 11.952 20 10.9 20 9.78a.895.895 0 00-.11-.431l-2.413-4.385a.842.842 0 00.472-.773c0-.463-.345-.838-.77-.838h-6.41V.838C10.77.375 10.425 0 10 0c-.425 0-.77.375-.77.838v2.515H2.82c-.424 0-.769.375-.769.838 0 .348.195.647.472.773L.11 9.35a.895.895 0 00-.11.43c0 2.312 1.725 4.192 3.846 4.192 2.12 0 3.846-1.88 3.846-4.191a.896.896 0 00-.11-.431L5.205 5.03H9.23v12.294H3.333c-.424 0-.769.376-.769.839 0 .463.345.838.77.838h13.333c.424 0 .769-.375.769-.838 0-.463-.345-.838-.77-.838H10.77V5.028h4.026l-2.378 4.32a.895.895 0 00-.11.43zm-8.462 2.515c-1.003 0-1.857-.701-2.175-1.677h4.35c-.317.976-1.172 1.677-2.175 1.677zm1.719-3.353H2.128L3.846 5.82l1.719 3.122zM16.154 5.82l1.718 3.122h-3.437l1.719-3.122zm2.175 4.798c-.317.976-1.172 1.677-2.175 1.677s-1.858-.701-2.175-1.677h4.35z" fill="#843061"/></svg>