<svg width="20" height="35" fill="none" xmlns="http://www.w3.org/2000/svg"><path d="M17.675 0H2.325C1.047 0 0 1.062 0 2.364v30.274c0 1.3 1.047 2.361 2.325 2.362h15.35C18.952 35 20 33.938 20 32.638V2.364C20 1.062 18.953 0 17.675 0zM7.545 1.704h4.912c.154 0 .279.128.279.286a.283.283 0 01-.28.286H7.544a.286.286 0 010-.572zM10 33.823c-.64 0-1.163-.53-1.163-1.185 0-.651.521-1.184 1.163-1.184s1.165.53 1.165 1.184c0 .654-.524 1.185-1.165 1.185zm8.38-3.196H1.619V3.75h16.765l-.002 26.878z" fill="#843061"/></svg>