<svg width="20" height="18" fill="none" xmlns="http://www.w3.org/2000/svg"><path d="M12.308 9.265c0 2.19 1.725 3.97 3.846 3.97a3.762 3.762 0 002.72-1.162A4.01 4.01 0 0020 9.265a.813.813 0 00-.11-.408l-2.413-4.154a.795.795 0 00.472-.733.782.782 0 00-.77-.794h-6.41V.794A.782.782 0 0010 0a.782.782 0 00-.77.794v2.382H2.82a.782.782 0 00-.769.794c0 .33.195.613.472.733L.11 8.857a.812.812 0 00-.11.408c0 2.19 1.725 3.97 3.846 3.97 2.12 0 3.846-1.78 3.846-3.97a.813.813 0 00-.11-.408L5.206 4.765H9.23v11.647H3.333a.782.782 0 00-.769.794c0 .438.345.794.77.794h13.333a.783.783 0 00.769-.794.782.782 0 00-.77-.794H10.77V4.765h4.026l-2.378 4.092a.813.813 0 00-.11.408zm-8.462 2.383c-1.003 0-1.857-.665-2.175-1.589h4.35c-.317.924-1.172 1.589-2.175 1.589zM5.565 8.47H2.128l1.718-2.957L5.565 8.47zm10.589-2.957l1.718 2.957h-3.437l1.719-2.957zm2.175 4.545c-.317.924-1.172 1.589-2.175 1.589s-1.858-.665-2.175-1.589h4.35z" fill="#C4C4C4"/></svg>