<svg width="87" height="19" fill="none" xmlns="http://www.w3.org/2000/svg"><path d="M10.805 14.455l1.056.936c-1.12 1.744-2.776 2.616-4.968 2.616-1.984 0-3.584-.592-4.8-1.776C.877 15.047.269 13.47.269 11.503c0-1.904.552-3.464 1.656-4.68 1.12-1.232 2.672-1.848 4.656-1.848 1.664 0 3.032.52 4.104 1.56 1.088 1.04 1.632 2.408 1.632 4.104 0 .32-.032.768-.096 1.344H1.925c.016 1.408.488 2.52 1.416 3.336.944.8 2.152 1.2 3.624 1.2.768 0 1.504-.192 2.208-.576.704-.4 1.248-.896 1.632-1.488zM6.461 6.439c-1.296 0-2.344.384-3.144 1.152-.8.752-1.272 1.736-1.416 2.952h8.736c-.032-1.28-.424-2.28-1.176-3-.736-.736-1.736-1.104-3-1.104zm16.159 8.016c0-.512-.288-.936-.864-1.272-.56-.352-1.247-.632-2.064-.84a84.184 84.184 0 01-2.471-.72c-.817-.256-1.512-.648-2.088-1.176-.56-.528-.84-1.184-.84-1.968 0-1.072.432-1.92 1.296-2.544.864-.64 2.031-.96 3.504-.96.976 0 1.912.2 2.808.6.912.4 1.584.912 2.015 1.536l-1.128 1.008c-.335-.464-.864-.856-1.584-1.176a5.44 5.44 0 00-2.232-.48c-2.016 0-3.024.632-3.024 1.896 0 .416.2.784.6 1.104.417.304.937.544 1.56.72.625.16 1.288.36 1.992.6.72.24 1.392.488 2.016.744a3.773 3.773 0 011.537 1.128c.416.496.623 1.088.623 1.776 0 1.168-.463 2.056-1.392 2.664-.928.608-2.104.912-3.527.912-1.216 0-2.337-.264-3.36-.792-1.008-.528-1.729-1.24-2.16-2.136l1.248-.912c.383.72.976 1.296 1.775 1.728a5.63 5.63 0 002.593.624c.816 0 1.544-.168 2.184-.504.655-.336.983-.856.983-1.56zm2.474-7.68V5.287h2.496V2.479h1.56v2.808h4.464v1.488H29.15v5.976c0 1.36.192 2.32.576 2.88.384.544 1.016.816 1.896.816.816 0 1.504-.352 2.064-1.056l.96.936c-.336.464-.8.848-1.392 1.152a4.142 4.142 0 01-1.92.456c-2.496 0-3.744-1.608-3.744-4.824V6.775h-2.496zm20.258 7.68l1.056.936c-1.12 1.744-2.776 2.616-4.968 2.616-1.984 0-3.584-.592-4.8-1.776-1.216-1.184-1.824-2.76-1.824-4.728 0-1.904.552-3.464 1.656-4.68 1.12-1.232 2.672-1.848 4.656-1.848 1.664 0 3.032.52 4.104 1.56 1.088 1.04 1.632 2.408 1.632 4.104 0 .32-.032.768-.096 1.344H36.472c.016 1.408.488 2.52 1.416 3.336.944.8 2.152 1.2 3.624 1.2.768 0 1.504-.192 2.208-.576.704-.4 1.248-.896 1.632-1.488zm-4.344-8.016c-1.296 0-2.344.384-3.144 1.152-.8.752-1.272 1.736-1.416 2.952h8.736c-.032-1.28-.424-2.28-1.176-3-.736-.736-1.736-1.104-3-1.104zm6.703.336V5.287h2.496V2.479h1.56v2.808h4.464v1.488h-4.464v5.976c0 1.36.192 2.32.576 2.88.384.544 1.016.816 1.896.816.816 0 1.504-.352 2.064-1.056l.96.936c-.336.464-.8.848-1.392 1.152a4.142 4.142 0 01-1.92.456c-2.496 0-3.744-1.608-3.744-4.824V6.775h-2.496zM58.98 17.767V5.287h1.56v12.48h-1.56zm-.263-16.464a.94.94 0 01.312-.72c.224-.192.48-.288.768-.288.272 0 .512.096.72.288a.94.94 0 01.312.72c0 .304-.104.56-.312.768a.989.989 0 01-.72.312c-.304 0-.56-.104-.768-.312a1.044 1.044 0 01-.312-.768zm15.041 13.224l1.08.864c-.432.816-1.12 1.456-2.064 1.92a6.514 6.514 0 01-2.904.696c-1.984 0-3.592-.592-4.824-1.776-1.216-1.184-1.824-2.76-1.824-4.728 0-1.872.6-3.424 1.8-4.656 1.216-1.248 2.8-1.872 4.752-1.872 1.008 0 1.96.216 2.856.648.896.432 1.56 1.008 1.992 1.728l-1.224.864c-.88-1.168-2.088-1.752-3.624-1.752-1.408 0-2.576.48-3.504 1.44-.928.944-1.392 2.144-1.392 3.6 0 1.52.472 2.736 1.416 3.648.944.912 2.176 1.368 3.696 1.368 1.584 0 2.84-.664 3.768-1.992zm3.632-6.6l-.84-1.2c.576-.528 1.304-.952 2.184-1.272a7.817 7.817 0 012.64-.48c1.68 0 2.952.44 3.816 1.32.88.864 1.32 2.104 1.32 3.72v7.752h-1.56v-2.064c-1.008 1.488-2.576 2.232-4.704 2.232-1.344 0-2.432-.336-3.264-1.008-.832-.688-1.248-1.592-1.248-2.712 0-2.528 2.024-3.792 6.072-3.792 1.232 0 2.28.128 3.144.384 0-1.408-.272-2.48-.816-3.216-.544-.752-1.528-1.128-2.952-1.128-1.28 0-2.544.488-3.792 1.464zm3.288 8.568c1.056 0 1.96-.296 2.712-.888.752-.592 1.272-1.224 1.56-1.896v-1.488c-.848-.256-1.824-.384-2.928-.384-1.52 0-2.68.176-3.48.528-.784.336-1.176.92-1.176 1.752 0 .736.304 1.32.912 1.752.624.416 1.424.624 2.4.624z" fill="#000"/></svg>