<svg width="124" height="29" fill="none" xmlns="http://www.w3.org/2000/svg"><path fill-rule="evenodd" clip-rule="evenodd" d="M36.684 7.881l-1.356 2.542h-2.88l3.812-7.286.188-.309c.157-.257.281-.46.405-.708.17-.254.424-.593.593-.762.17-.254.424-.424.678-.508.254-.085.593-.17.932-.17.339 0 .678.085.932.17.254.17.508.339.678.508.254.17.423.424.593.762l.086.128c.161.236.364.533.507.89l3.812 7.285h-2.711l-1.44-2.542h-4.83zm2.457-4.575L37.955 5.34h2.372L39.14 3.307zM46.935.68h2.372v7.117h8.896V.51h2.626v6.947c0 .339-.085.678-.254 1.016-.17.34-.424.678-.678.932-.254.34-.593.509-.932.678a2.25 2.25 0 01-1.017.254H49.9a2.61 2.61 0 01-1.101-.254c-.34-.17-.678-.339-.932-.678s-.509-.677-.678-1.016a2.346 2.346 0 01-.254-1.102V.68zm15.334 2.457V.68h13.81v2.457h-5.677v7.286h-2.457V3.137H62.27zM79.637.85c.423-.085.847-.17 1.27-.17h7.286c.424 0 .848.085 1.186.254.424.17.763.424 1.017.678.254.339.508.678.678 1.017.17.423.254.762.254 1.186v3.643c0 .339-.085.762-.254 1.101-.17.339-.424.678-.678.932-.339.339-.678.508-1.017.678-.423.17-.762.254-1.186.254h-7.54c-.423 0-.847-.085-1.186-.254a3.046 3.046 0 01-1.016-.678c-.34-.339-.509-.678-.678-1.017a3.398 3.398 0 01-.254-1.27V3.56c0-.424.084-.848.254-1.186.17-.34.424-.678.762-.932.34-.255.678-.424 1.102-.593zm8.98 7.031v-4.66h-8.641v4.66h8.641zM2.372 17.455c.424-.17 1.017-.254 1.525-.254h11.607v2.88H0c.085-.339.17-.593.254-.847a5.44 5.44 0 01.847-1.102c.093-.055.18-.11.268-.165.312-.195.605-.38 1.003-.512zM0 24.148v-2.88h15.589v2.88H0zm.212 1.61c-.043-.149-.085-.297-.127-.424h15.419v2.965H3.897c-.508 0-.932-.085-1.44-.254a3.19 3.19 0 01-1.27-.763c-.34-.254-.594-.678-.848-1.101a10.826 10.826 0 01-.127-.424zm19.867-4.406h10.166c.508 0 1.017.084 1.61.339.423.17.847.423 1.186.762.339.339.593.678.762 1.102.17.423.254.847.254 1.355s-.169.932-.339 1.356a5.436 5.436 0 01-.847 1.1 5.403 5.403 0 01-1.186.679c-.423.17-.847.254-1.355.254H17.79v-2.796h13.386v-1.355H20.84a3.959 3.959 0 01-1.44-.255c-.424-.169-.847-.338-1.186-.677-.34-.34-.678-.678-.847-1.102-.255-.423-.34-.847-.34-1.355 0-.509.085-1.017.34-1.44.254-.424.508-.848.931-1.102.424-.339.848-.508 1.356-.678a4.799 4.799 0 011.525-.254h12.115v2.711H20.079v1.356zm15.419-1.356v-2.795h15.758v2.795h-6.44v8.218h-2.795v-8.218h-6.523zm19.655-2.541c.423-.17 1.016-.254 1.525-.254h11.606v2.88H52.781c.042-.127.084-.275.127-.424.042-.148.084-.296.127-.423.254-.424.508-.763.847-1.102.092-.055.18-.11.267-.165.312-.195.606-.38 1.004-.512zm-2.457 6.693v-2.88H68.2v2.88H52.695zm.212 1.61c-.043-.149-.085-.297-.127-.424h15.418v2.965H56.593c-.508 0-.932-.085-1.44-.254a3.19 3.19 0 01-1.271-.763c-.339-.254-.593-.678-.847-1.101a10.475 10.475 0 01-.127-.424zm16.817-5.762v-2.795h15.757v2.795h-6.438v8.218h-2.796v-8.218h-6.523zm17.198-2.795h3.134v11.183h-3.134V17.2zm8.895 0h11.522v2.795H94.463v5.422h12.962v2.796H95.31c-.508 0-.932-.085-1.356-.254a5.402 5.402 0 01-1.186-.678c-.262-.196-.473-.494-.673-.776a11.354 11.354 0 00-.174-.24c-.254-.34-.339-.763-.339-1.271v-3.728c0-1.355.34-2.372 1.102-3.05.762-.678 1.779-1.016 3.134-1.016zm17.707 8.133L112 28.214v-.085h-3.304l4.32-8.302a16.2 16.2 0 01.296-.467 6.73 6.73 0 00.382-.634l.15-.203c.179-.243.327-.444.528-.645.068-.045.135-.096.204-.148.191-.145.394-.298.643-.36.339-.085.678-.17 1.101-.17.424 0 .763 0 1.017.17.254.17.508.339.763.593.254.17.508.508.677.847.154.205.276.44.405.687.085.163.172.331.273.5l4.321 8.217h-3.05l-1.695-2.88h-5.506zm1.44-2.796h2.626l-1.271-2.372-1.355 2.372z" fill="#686464"/></svg>