<svg width="124" height="28" fill="none" xmlns="http://www.w3.org/2000/svg"><path fill-rule="evenodd" clip-rule="evenodd" d="M36.684 7.37l-1.356 2.542h-2.88l3.812-7.286.188-.309a9.35 9.35 0 00.405-.707c.17-.254.424-.593.593-.763.17-.254.424-.423.678-.508.254-.085.593-.17.932-.17.339 0 .678.085.932.17.254.17.508.339.678.508.254.17.423.424.593.763l.086.127c.161.236.364.533.507.89l3.812 7.285h-2.711l-1.44-2.541h-4.83zm2.457-4.574l-1.186 2.033h2.372L39.14 2.796zM46.935.169h2.372v7.117h8.896V0h2.626v6.947c0 .339-.085.678-.254 1.017-.17.339-.424.677-.678.932-.254.338-.593.508-.932.677-.339.17-.678.255-1.017.255H49.9a2.6 2.6 0 01-1.101-.255c-.34-.17-.678-.339-.932-.677-.254-.34-.509-.678-.678-1.017a2.346 2.346 0 01-.254-1.101V.169zm15.334 2.457V.17h13.81v2.457h-5.677v7.286h-2.457V2.626H62.27zM79.637.34c.423-.085.847-.17 1.27-.17h7.286c.424 0 .848.085 1.186.255.424.169.763.423 1.017.677.254.34.508.678.678 1.017.17.424.254.762.254 1.186v3.643c0 .339-.085.763-.254 1.101-.17.34-.424.678-.678.932-.339.34-.678.509-1.017.678-.423.17-.762.254-1.186.254h-7.54c-.423 0-.847-.084-1.186-.254a3.046 3.046 0 01-1.016-.678c-.34-.339-.509-.677-.678-1.016a3.398 3.398 0 01-.254-1.271V3.05c0-.424.084-.847.254-1.186a2.66 2.66 0 01.762-.932c.34-.254.678-.424 1.102-.593zm8.98 7.032V2.71h-8.641v4.66h8.641zM2.372 16.944c.424-.17 1.017-.254 1.525-.254h11.607v2.88H0c.085-.339.17-.593.254-.847a5.44 5.44 0 01.847-1.101c.093-.056.18-.11.268-.165.312-.196.605-.38 1.003-.513zM0 23.637v-2.88h15.589v2.88H0zm.212 1.61c-.043-.149-.085-.297-.127-.424h15.419v2.965H3.897c-.508 0-.932-.085-1.44-.254a3.19 3.19 0 01-1.27-.762c-.34-.255-.594-.678-.848-1.102a10.333 10.333 0 01-.127-.424zm19.867-4.406h10.166c.508 0 1.017.085 1.61.339.423.17.847.424 1.186.762.339.34.593.678.762 1.102.17.423.254.847.254 1.355 0 .509-.169.932-.339 1.356a5.436 5.436 0 01-.847 1.101 5.403 5.403 0 01-1.186.678c-.423.17-.847.254-1.355.254H17.79v-2.796h13.386v-1.355H20.84a3.959 3.959 0 01-1.44-.254c-.424-.17-.847-.34-1.186-.678-.34-.339-.678-.678-.847-1.101-.255-.424-.34-.848-.34-1.356 0-.508.085-1.017.34-1.44.254-.424.508-.847.931-1.102.424-.338.848-.508 1.356-.677a4.799 4.799 0 011.525-.255h12.115v2.712H20.079v1.355zm15.419-1.355V16.69h15.758v2.796h-6.44v8.217h-2.795v-8.217h-6.523zm19.655-2.542c.423-.17 1.016-.254 1.525-.254h11.606v2.88H52.781c.042-.127.084-.275.127-.423.042-.149.084-.297.127-.424.254-.424.508-.762.847-1.101.092-.056.18-.11.267-.165.312-.196.606-.38 1.004-.513zm-2.457 6.693v-2.88H68.2v2.88H52.695zm.212 1.61c-.043-.149-.085-.297-.127-.424h15.418v2.965H56.593c-.508 0-.932-.085-1.44-.254a3.19 3.19 0 01-1.271-.762c-.339-.255-.593-.678-.847-1.102a10.475 10.475 0 01-.127-.424zm16.817-5.761V16.69h15.757v2.796h-6.438v8.217h-2.796v-8.217h-6.523zm17.198-2.796h3.134v11.183h-3.134V16.69zm8.895 0h11.522v2.796H94.463v5.422h12.962v2.795H95.31c-.508 0-.932-.084-1.356-.254a5.402 5.402 0 01-1.186-.678c-.262-.196-.473-.494-.673-.776a11.354 11.354 0 00-.174-.24c-.254-.339-.339-.763-.339-1.27v-3.729c0-1.355.34-2.372 1.102-3.05.762-.677 1.779-1.016 3.134-1.016zm17.707 8.133L112 27.703v-.084h-3.304l4.32-8.303a16.2 16.2 0 01.296-.467 6.73 6.73 0 00.382-.634l.15-.202c.179-.243.327-.444.528-.645.068-.045.135-.097.204-.149.191-.144.394-.298.643-.36.339-.084.678-.17 1.101-.17.424 0 .763 0 1.017.17.254.17.508.34.763.593.254.17.508.509.677.847.154.205.276.44.405.688.085.162.172.33.273.499l4.321 8.217h-3.05l-1.695-2.88h-5.506zm1.44-2.796h2.626l-1.271-2.372-1.355 2.372z" fill="#000"/></svg>